<svg width="30" height="30" viewBox="0 0 30 30" xmlns="http://www.w3.org/2000/svg">
<circle cx='15' cy="15" r="14" fill="black" stroke="white" />
<path d="M18.0367 15.979C18.0367 16.69 17.788 17.2994 17.2905 17.8073C16.793 18.3151 16.1935 18.569 15.492 18.569C14.7585 18.569 14.1462 18.3278 13.6551 17.8453C13.1577 17.3629 12.9089 16.7535 12.9089 16.0171C12.9089 15.3061 13.1577 14.722 13.6551 14.265C14.1526 13.8079 14.7904 13.5793 15.5749 13.5793C16.2764 13.5793 16.8632 13.8079 17.3351 14.265C17.8007 14.722 18.0367 15.2934 18.0367 15.979Z" fill="white"/>
<path fill-rule="evenodd" clip-rule="evenodd" d="M15.3605 8.55381C11.539 8.55381 8.44724 11.6364 8.44724 15.4313C8.44724 19.2262 11.539 22.3088 15.3605 22.3088C19.182 22.3088 22.2737 19.2262 22.2737 15.4313C22.2737 11.6364 19.182 8.55381 15.3605 8.55381ZM6.87524 15.4313C6.87524 10.7613 10.6777 6.98181 15.3605 6.98181C20.0433 6.98181 23.8457 10.7613 23.8457 15.4313C23.8457 20.1013 20.0433 23.8808 15.3605 23.8808C10.6777 23.8808 6.87524 20.1013 6.87524 15.4313Z" fill="white"/>
<path fill-rule="evenodd" clip-rule="evenodd" d="M15.3608 2.06932C7.94131 2.06932 1.93284 8.05513 1.93284 15.4313C1.93284 22.8075 7.94131 28.7933 15.3608 28.7933C22.7804 28.7933 28.7888 22.8075 28.7888 15.4313C28.7888 8.05513 22.7804 2.06932 15.3608 2.06932ZM0.36084 15.4313C0.36084 7.18005 7.08002 0.497314 15.3608 0.497314C23.6417 0.497314 30.3608 7.18005 30.3608 15.4313C30.3608 23.6826 23.6417 30.3653 15.3608 30.3653C7.08002 30.3653 0.36084 23.6826 0.36084 15.4313Z" fill="white"/>
</svg>
