<svg width="160" height="61" viewBox="0 0 160 61" fill="none" xmlns="http://www.w3.org/2000/svg">
<path d="M39.4648 59.5317C39.4648 59.8337 39.3226 60.0131 39.0381 60.0697C38.7536 60.1263 38.0235 60.1547 36.8476 60.1547C36.5441 60.1547 35.6907 60.1358 34.2872 60.098C31.4803 60.0225 29.5458 59.9848 28.4837 59.9848C27.232 59.9848 26.132 60.0036 25.1837 60.0414C23.2872 60.1169 21.9975 60.1547 21.3147 60.1547C20.2906 60.1547 19.7785 59.9659 19.7785 59.5883C19.7785 59.2108 20.8595 59.0031 23.0216 58.9654C23.5527 58.9654 23.9509 58.9276 24.2165 58.8521C24.8234 58.7766 25.1268 58.5501 25.1268 58.1725C25.1268 57.9837 24.8992 57.1909 24.4441 55.7939L23.2492 52.1128C23.0216 51.2822 22.5285 49.7531 21.7699 47.5255H20.7458H16.3078C14.7147 47.4878 13.0267 47.5067 11.244 47.5822C10.9026 48.3373 10.2578 50.0363 9.30947 52.6791L8.05774 56.3603C7.86808 56.9266 7.77325 57.3797 7.77325 57.7195C7.77325 58.3613 8.19049 58.7766 9.02498 58.9654C9.21464 59.0031 10.144 59.0786 11.8129 59.1919C12.344 59.2297 12.6095 59.3901 12.6095 59.6733C12.6095 59.9942 12.2681 60.1547 11.5853 60.1547H2.19735C1.96976 60.1547 1.72321 60.1547 1.45769 60.1547C0.926652 60.1547 0.661133 59.9659 0.661133 59.5883C0.661133 59.3618 1.24907 59.2108 2.42494 59.1353C3.94219 59.0598 4.90944 58.7766 5.32668 58.2858C5.74393 57.795 6.42669 56.2092 7.37497 53.5286C8.09567 51.6409 9.13878 48.847 10.5043 45.147L17.3888 26.2883C17.7302 25.4576 18.2044 24.1551 18.8113 22.3806C19.2285 21.0969 19.5509 20.4551 19.7785 20.4551C20.0061 20.4551 20.4233 21.3234 21.0302 23.0602C21.7889 25.2877 25.1268 34.0847 31.0441 49.4511C31.8027 51.4143 32.5614 53.4154 33.32 55.4541C33.9648 57.1909 34.6096 58.248 35.2545 58.6256C35.7476 58.9276 36.9235 59.0598 38.7821 59.022C39.2373 59.022 39.4648 59.1919 39.4648 59.5317ZM21.3716 46.2796C21.3337 46.1664 21.2009 45.8077 20.9733 45.2036C19.4466 40.824 18.3466 37.747 17.6544 35.9819C17.4742 35.4911 17.2181 34.7643 16.8957 33.8204L16.5164 32.8199C15.8337 34.4434 15.0086 36.6898 14.0224 39.5592C12.9224 42.7684 12.1354 45.0148 11.6422 46.2985C11.9836 46.2985 12.4009 46.2985 12.894 46.2985C13.3492 46.2985 13.7664 46.2985 14.1457 46.2985H17.3319C18.2044 46.2796 19.5509 46.2796 21.3716 46.2796Z" fill="white"/>
<path d="M55.5668 59.7582C55.5668 60.0225 55.3961 60.1546 55.0548 60.1546H47.5159H42.0728C41.8452 60.1546 41.5607 60.1546 41.2193 60.1546C40.9159 60.1546 40.7452 60.1546 40.7072 60.1546C40.2521 60.1546 40.0245 60.0319 40.0245 59.796C40.0245 59.6166 40.4607 59.5128 41.3331 59.475C42.6228 59.4373 43.3814 59.2957 43.609 59.0503C43.8366 58.8049 43.9504 58.0498 43.9504 56.8039V40.4559C43.9504 39.0117 43.8271 38.1528 43.5805 37.8696C43.334 37.5865 42.5848 37.4449 41.3331 37.4449C40.5365 37.4449 40.0719 37.426 39.9391 37.3883C39.8064 37.3505 39.74 37.2184 39.74 36.9918C39.74 36.7275 40.0245 36.5954 40.5934 36.5954C44.7659 36.5576 48.2116 35.9278 51.1702 34.6818C51.5386 34.5897 51.5746 36.0631 51.5746 38.4077V45.6V56.247C51.5746 57.7949 51.7168 58.7011 52.0013 58.9654C52.2858 59.2296 53.2625 59.3618 54.9315 59.3618C55.3582 59.3618 55.5668 59.4939 55.5668 59.7582ZM51.584 23.853C51.584 24.9102 51.2142 25.8163 50.4745 26.5714C49.7349 27.3265 48.8435 27.7041 47.8004 27.7041C46.7099 27.7041 45.7995 27.3454 45.0693 26.628C44.3297 25.9107 43.9598 25.0046 43.9598 23.9097C43.9598 22.8525 44.3297 21.9841 45.0693 21.3045C45.809 20.625 46.7573 20.2852 47.9237 20.2852C48.9668 20.2852 49.8392 20.625 50.5409 21.3045C51.2332 21.9841 51.584 22.8336 51.584 23.853Z" fill="white"/>
<path d="M101.255 59.8714C101.255 60.2112 100.97 60.3434 100.401 60.2679H99.3773H97.7273C96.6272 60.2679 95.2997 60.2679 93.7445 60.2679H90.5582C90.4444 60.2679 90.16 60.2679 89.7048 60.2679C89.2496 60.2679 88.8324 60.2679 88.4531 60.2679H87.7134C87.1824 60.2679 86.9168 60.1546 86.9168 59.9281C86.9168 59.7393 87.3625 59.626 88.2539 59.5883C89.3729 59.5505 89.9324 59.2107 89.9324 58.5594V45.8359C89.9324 41.9188 89.7996 39.5591 89.5341 38.7663C89.1548 37.6619 88.197 37.1145 86.6703 37.1145C85.2573 37.1145 84.1479 37.7186 83.3418 38.9362C83.0004 39.427 82.8108 39.9839 82.7728 40.588C82.697 41.3053 82.659 43.2591 82.659 46.4495V57.2474C82.659 58.3895 82.7634 59.0503 82.972 59.239C83.1806 59.4278 83.8918 59.5222 85.1056 59.5222C85.447 59.5222 85.6177 59.6166 85.6177 59.8054C85.6177 60.1074 85.4091 60.2584 84.9918 60.2584C84.6125 60.2584 84.3091 60.2395 84.0815 60.2018L73.0435 60.0885C72.7021 60.0885 72.5314 59.9753 72.5314 59.7487C72.5314 59.5222 72.9866 59.4089 73.8969 59.4089C74.5797 59.4089 74.978 59.3145 75.0917 59.1258L75.2055 58.5594V44.6561C75.2055 41.0977 74.9969 38.9551 74.5797 38.2094C74.1624 37.4732 73.309 37.105 72.0193 37.105C70.4641 37.105 69.3072 37.7469 68.5486 39.04C68.2831 39.5308 68.1219 40.0405 68.065 40.5502C68.0081 41.0599 67.9796 42.5512 67.9796 45.0148V56.2847C67.9796 58.0309 68.0839 58.9936 68.2926 59.1635C68.5012 59.3334 69.0227 59.4184 69.8572 59.4184H70.7107C71.09 59.4184 71.2797 59.5222 71.2797 59.7299C71.2797 59.9753 71.109 60.098 70.7676 60.098C70.2745 60.098 69.8193 60.098 69.4021 60.098H67.0124C63.9779 60.1452 62.3658 60.1735 62.1761 60.2018C60.3554 60.249 59.0089 60.2679 58.1365 60.2679H57.3399C56.8468 60.2679 56.6002 60.1168 56.6002 59.8148C56.6002 59.5505 56.7709 59.4184 57.1123 59.4184L58.4209 59.6449C59.0658 59.6827 59.5968 59.5316 60.0141 59.1918C60.3175 58.9275 60.4692 58.1347 60.4692 56.8038V47.4122C60.4692 42.1359 60.3934 39.3137 60.2416 38.9267C59.9382 38.5869 58.7623 38.417 56.714 38.417C56.183 38.417 55.9175 38.2849 55.9175 38.0206C55.9175 37.7186 56.164 37.5675 56.6571 37.5675C60.4503 37.492 63.8262 36.6614 66.7848 35.0757C67.1262 34.8869 67.3727 34.7925 67.5245 34.7925C67.7141 34.7925 67.8089 34.9436 67.8089 35.2456C67.8089 35.8119 67.79 36.2839 67.752 36.6614V39.04C69.4969 36.2084 72.0667 34.7925 75.4711 34.7925C79.2926 34.7925 81.5496 36.3405 82.2323 39.4364C83.1047 37.7752 84.1668 36.5859 85.4091 35.8686C86.6608 35.1512 88.3013 34.7925 90.3496 34.7925C95.1574 34.7925 97.566 37.4448 97.566 42.7589C97.566 42.8722 97.566 43.1553 97.566 43.6084C97.566 44.0614 97.566 44.439 97.566 44.7505V56.7566C97.566 57.9742 97.6135 58.7105 97.7083 58.9747C97.8031 59.239 98.116 59.3901 98.6471 59.4278C99.4057 59.5033 100.088 59.5411 100.695 59.5411C101.065 59.5222 101.255 59.6355 101.255 59.8714Z" fill="white"/>
<path d="M131.524 59.9281C131.524 60.1546 131.354 60.2679 131.012 60.2679C131.05 60.2679 130.671 60.2679 129.874 60.2679C129.078 60.2679 128.414 60.2679 127.883 60.2679H126.46C123.198 60.2679 121.188 60.2112 120.429 60.098H119.519L118.153 60.2679C117.66 60.3056 117.414 60.1641 117.414 59.8431C117.414 59.5977 117.509 59.475 117.698 59.475H119.007C119.841 59.5128 120.316 59.2862 120.429 58.7954C120.505 58.4934 120.543 56.6056 120.543 53.1321V44.6939C120.543 41.1826 120.372 39.1061 120.031 38.4643C119.538 37.4826 118.599 36.9918 117.205 36.9918C115.735 36.9918 114.607 37.6525 113.82 38.9834C113.44 39.6252 113.251 41.0127 113.251 43.1365V52.075C113.251 54.8406 113.251 56.3602 113.251 56.6245V57.3041V58.6727C113.213 59.239 113.99 59.5222 115.593 59.5222C115.925 59.5222 116.096 59.6355 116.096 59.862C116.096 60.1263 115.849 60.2584 115.356 60.2584H114.901C114.597 60.1452 114.142 60.0885 113.535 60.0885H111.032L107.846 60.1452L104.489 60.2584H102.782C102.213 60.2584 101.928 60.1452 101.928 59.9186C101.928 59.8054 101.966 59.7299 102.042 59.6921C102.118 59.6544 102.289 59.6355 102.554 59.6355C103.996 59.6355 104.849 59.5788 105.115 59.4656C105.38 59.3523 105.551 58.9181 105.627 58.163C105.665 57.71 105.684 55.4447 105.684 51.3671V30.5923C105.684 26.5147 105.598 24.1645 105.428 23.5415C105.257 22.9186 104.451 22.6071 103.009 22.6071C101.909 22.6071 101.359 22.4938 101.359 22.2673C101.359 22.0407 102.004 21.8897 103.284 21.8142C106.196 21.6254 108.927 21.1346 111.497 20.3418C111.99 20.1907 112.35 20.1152 112.568 20.1152C112.872 20.1152 113.023 21.1724 113.023 23.2867V24.4193C113.023 25.1744 113.023 26.1749 113.023 27.4209C113.023 28.629 113.023 29.4596 113.023 29.9127V38.9173C114.123 37.3694 115.195 36.3122 116.238 35.7459C117.281 35.1796 118.694 34.8964 120.477 34.8964C124.232 34.8964 126.584 36.4066 127.532 39.427C127.873 40.4086 128.044 41.9944 128.044 44.1842V57.3796C128.044 58.3612 128.205 58.9653 128.528 59.1919C128.85 59.4184 129.656 59.5317 130.946 59.5317C131.335 59.5317 131.524 59.6638 131.524 59.9281Z" fill="white"/>
<path d="M159.233 48.0919C159.233 52.1317 157.64 55.3975 154.454 57.8893C151.95 59.8526 149.2 60.8342 146.204 60.8342C142.638 60.8342 139.556 59.56 136.958 57.0115C134.36 54.4631 133.061 51.4521 133.061 47.9786C133.061 44.3541 134.36 41.2676 136.958 38.7191C139.556 36.1707 142.695 34.8964 146.374 34.8964C149.902 34.8964 152.927 36.1895 155.449 38.7758C157.972 41.362 159.233 44.4674 159.233 48.0919ZM150.642 48.1485C150.642 43.4669 150.319 40.2577 149.684 38.5209C148.963 36.5954 147.816 35.6326 146.232 35.6326C144.762 35.6326 143.615 36.6426 142.78 38.6625C141.946 40.6824 141.538 43.4669 141.538 47.0158C141.538 51.9618 142.031 55.473 143.008 57.5495C143.795 59.2108 144.914 60.0414 146.346 60.0414C148.119 60.0414 149.286 58.9842 149.855 56.8699C150.376 54.8689 150.642 51.9618 150.642 48.1485Z" fill="white"/>
<path fill-rule="evenodd" clip-rule="evenodd" d="M37.3261 23.0387C37.3261 17.3963 41.923 12.813 47.605 12.813C53.287 12.813 57.8839 17.3963 57.8839 23.0387C57.8839 26.3944 56.258 29.3755 53.7449 31.2407C53.43 31.4744 53.4321 31.9712 53.7123 32.2455C53.7192 32.2523 53.7261 32.2591 53.733 32.2659C53.9635 32.4953 54.1427 32.7334 54.2816 32.9557C54.4554 33.2338 54.825 33.3476 55.0892 33.1534C58.2013 30.8664 60.2212 27.1891 60.2212 23.0387C60.2212 16.0952 54.5676 10.4756 47.605 10.4756C40.6424 10.4756 34.9888 16.0952 34.9888 23.0387C34.9888 27.0971 36.9202 30.7032 39.9155 32.9993C40.0147 33.0753 40.1386 33.1105 40.2634 33.1061C40.3483 33.1031 40.4256 33.102 40.4944 33.1019C41.0888 33.0963 41.6623 33.0777 42.2161 33.0463C42.7785 33.0145 42.8957 32.1481 42.4093 31.864C39.3667 30.0873 37.3261 26.7981 37.3261 23.0387Z" fill="white"/>
<path fill-rule="evenodd" clip-rule="evenodd" d="M47.6054 3.17155C36.5737 3.17155 27.6401 12.0715 27.6401 23.0387C27.6401 30.3196 31.5774 36.6894 37.452 40.1489C37.4769 40.1635 37.5005 40.1802 37.5229 40.1984C37.8835 40.4919 38.308 40.7271 38.7896 40.877C38.8169 40.8855 38.8436 40.8959 38.8693 40.9083C39.2284 41.0825 39.5936 41.2462 39.9643 41.3992C40.1642 41.4817 40.297 41.6752 40.297 41.8915V43.2862C40.297 43.6472 39.9411 43.9004 39.604 43.7713C31.2413 40.57 25.3027 32.4975 25.3027 23.0387C25.3027 10.7704 35.2931 0.834229 47.6054 0.834229C59.9176 0.834229 69.908 10.7704 69.908 23.0387C69.908 25.8346 69.3892 28.5093 68.4422 30.9729C68.356 31.1973 68.1258 31.325 67.8861 31.3069C67.5823 31.2839 67.3568 31.3039 66.9169 31.3668V31.3668C66.427 31.4367 65.9348 30.9426 66.1212 30.4842C67.056 28.1844 67.5707 25.6711 67.5707 23.0387C67.5707 12.0715 58.6371 3.17155 47.6054 3.17155Z" fill="white"/>
</svg>
